<svg width="23" height="23" viewBox="0 0 23 23" fill="none" xmlns="http://www.w3.org/2000/svg">
<path d="M16.723 21.802C15.6401 21.802 14.4997 21.5433 13.3209 21.045C12.1709 20.5562 11.0113 19.8854 9.8805 19.0708C8.75925 18.2466 7.67633 17.3266 6.65091 16.3204C5.63508 15.295 4.71508 14.212 3.9005 13.1004C3.07633 11.9504 2.41508 10.8004 1.9455 9.68871C1.44716 8.50038 1.198 7.35038 1.198 6.26746C1.198 5.51996 1.33216 4.81079 1.59091 4.14954C1.85925 3.46913 2.2905 2.83663 2.87508 2.29038C3.613 1.56204 4.45633 1.19788 5.35716 1.19788C5.73091 1.19788 6.11425 1.28413 6.44008 1.43746C6.81383 1.60996 7.13008 1.86871 7.36008 2.21371L9.58341 5.34746C9.78466 5.62538 9.938 5.89371 10.0434 6.16204C10.168 6.44954 10.2351 6.73704 10.2351 7.01496C10.2351 7.37913 10.1297 7.73371 9.92841 8.06913C9.78466 8.32788 9.56425 8.60579 9.28633 8.88371L8.63467 9.56413C8.64425 9.59288 8.65383 9.61204 8.66341 9.63121C8.77841 9.83246 9.00841 10.1775 9.44925 10.695C9.91883 11.2316 10.3597 11.7204 10.8005 12.1708C11.3659 12.7266 11.8355 13.1675 12.2763 13.5316C12.8226 13.9916 13.1772 14.2216 13.388 14.327L13.3688 14.375L14.0684 13.685C14.3655 13.3879 14.653 13.1675 14.9309 13.0237C15.458 12.6979 16.1288 12.6404 16.7997 12.9183C17.0488 13.0237 17.3172 13.1675 17.6047 13.3687L20.7863 15.6304C21.1409 15.87 21.3997 16.1766 21.553 16.5408C21.6967 16.905 21.7638 17.2404 21.7638 17.5758C21.7638 18.0358 21.6584 18.4958 21.4572 18.927C21.2559 19.3583 21.0067 19.732 20.6905 20.077C20.1442 20.6808 19.5501 21.112 18.8601 21.39C18.1988 21.6583 17.4801 21.802 16.723 21.802ZM5.35716 2.63538C4.83008 2.63538 4.34133 2.86538 3.87175 3.32538C3.43091 3.73746 3.12425 4.18788 2.93258 4.67663C2.73133 5.17496 2.6355 5.70204 2.6355 6.26746C2.6355 7.15871 2.84633 8.12663 3.268 9.12329C3.69925 10.1391 4.303 11.1933 5.06966 12.2475C5.83633 13.3016 6.70841 14.327 7.66675 15.295C8.62508 16.2437 9.66008 17.1254 10.7238 17.9016C11.7588 18.6587 12.8226 19.272 13.8767 19.7129C15.5155 20.4125 17.0488 20.5754 18.3138 20.0483C18.8026 19.847 19.2338 19.5404 19.6267 19.0995C19.8472 18.86 20.0197 18.6012 20.1634 18.2945C20.2784 18.055 20.3359 17.8058 20.3359 17.5566C20.3359 17.4033 20.3072 17.25 20.2305 17.0775C20.2017 17.02 20.1442 16.9145 19.9622 16.79L16.7805 14.5283C16.5888 14.3941 16.4163 14.2983 16.2534 14.2312C16.0426 14.145 15.9563 14.0587 15.6305 14.26C15.4388 14.3558 15.2663 14.4995 15.0747 14.6912L14.3463 15.41C13.9726 15.7741 13.3976 15.8604 12.9567 15.6975L12.698 15.5825C12.3051 15.3716 11.8451 15.0458 11.3372 14.6145C10.8772 14.2216 10.3788 13.7616 9.77508 13.1675C9.3055 12.6883 8.83591 12.1804 8.34716 11.615C7.89675 11.0879 7.57091 10.6375 7.36966 10.2637L7.25466 9.97621C7.19716 9.75579 7.178 9.63121 7.178 9.49704C7.178 9.15204 7.30258 8.84538 7.54216 8.60579L8.26091 7.85829C8.45258 7.66663 8.59633 7.48454 8.69216 7.32163C8.76883 7.19704 8.79758 7.09163 8.79758 6.99579C8.79758 6.91913 8.76883 6.80413 8.72091 6.68913C8.65383 6.53579 8.54841 6.36329 8.41425 6.18121L6.19091 3.03788C6.09508 2.90371 5.98008 2.80788 5.83633 2.74079C5.683 2.67371 5.52008 2.63538 5.35716 2.63538ZM13.3688 14.3845L13.2155 15.0362L13.4742 14.3654C13.4263 14.3558 13.388 14.3654 13.3688 14.3845Z" fill="#022561"/>
<path d="M17.7292 9.34379C17.3362 9.34379 17.0104 9.01796 17.0104 8.62504C17.0104 8.28004 16.6654 7.56129 16.0904 6.94796C15.525 6.34421 14.9021 5.98962 14.375 5.98962C13.9821 5.98962 13.6562 5.66379 13.6562 5.27087C13.6562 4.87796 13.9821 4.55212 14.375 4.55212C15.3046 4.55212 16.2821 5.05046 17.135 5.96087C17.9304 6.81379 18.4479 7.85837 18.4479 8.62504C18.4479 9.01796 18.1221 9.34379 17.7292 9.34379Z" fill="#022561"/>
<path d="M21.0833 9.34371C20.6904 9.34371 20.3646 9.01788 20.3646 8.62496C20.3646 5.31871 17.6813 2.63538 14.375 2.63538C13.9821 2.63538 13.6562 2.30954 13.6562 1.91663C13.6562 1.52371 13.9821 1.19788 14.375 1.19788C18.4671 1.19788 21.8021 4.53288 21.8021 8.62496C21.8021 9.01788 21.4762 9.34371 21.0833 9.34371Z" fill="#022561"/>
</svg>
