<svg width="25" height="19" viewBox="0 0 25 19" fill="none" xmlns="http://www.w3.org/2000/svg">
<path d="M20.81 18.4014H3.83214C2.81608 18.4001 1.84202 17.9958 1.12362 17.2773C0.405218 16.5588 0.00113398 15.5846 0 14.5686V3.83214C0.00113435 2.81614 0.405241 1.84208 1.12366 1.12366C1.84208 0.405241 2.81614 0.00113435 3.83214 0H20.81C21.8261 0.00113398 22.8002 0.405218 23.5187 1.12362C24.2373 1.84202 24.6415 2.81608 24.6429 3.83214V14.5686C24.6417 15.5848 24.2375 16.559 23.519 17.2776C22.8004 17.9961 21.8262 18.4003 20.81 18.4014ZM3.83214 1.78571C3.28957 1.78628 2.76938 2.00207 2.38573 2.38573C2.00207 2.76938 1.78628 3.28957 1.78571 3.83214V14.5686C1.78609 15.1113 2.0018 15.6316 2.38547 16.0155C2.76915 16.3993 3.28945 16.6151 3.83214 16.6157H20.81C21.3528 16.6151 21.8731 16.3993 22.2569 16.0155C22.6407 15.6317 22.8566 15.1113 22.8571 14.5686V3.83214C22.8564 3.28951 22.6404 2.76932 22.2567 2.38568C21.8729 2.00205 21.3526 1.78628 20.81 1.78571H3.83214Z" fill="#022561"/>
<path d="M12.3103 11.604C11.5611 11.6114 10.8314 11.366 10.2388 10.9076L0.690257 3.29829C0.50508 3.15062 0.386147 2.93543 0.359624 2.70008C0.333101 2.46472 0.40116 2.22846 0.548829 2.04328C0.696498 1.85811 0.91168 1.73917 1.14704 1.71265C1.3824 1.68613 1.61865 1.75419 1.80383 1.90186L11.3495 9.51114C11.6315 9.71115 11.9689 9.81817 12.3146 9.81728C12.6603 9.81638 12.9972 9.70761 13.2781 9.50614L22.706 1.90543C22.8902 1.75681 23.1259 1.68747 23.3613 1.71265C23.5966 1.73783 23.8124 1.85548 23.961 2.03971C24.1096 2.22394 24.1789 2.45967 24.1537 2.69502C24.1286 2.93038 24.0109 3.1461 23.8267 3.29471L14.4017 10.8954C13.8051 11.362 13.0676 11.6118 12.3103 11.604Z" fill="#022561"/>
</svg>
